# xmcd CD database file
#
# Track frame offsets:
#	150
#	23792
#	61605
#
# Disc length: 1081 seconds
#
# Revision: 1
# Processed by: cddbd v1.5PL3 Copyright (c) Steve Scherf et al.
# Submitted via: CDex 1.51
#
DISCID=18043703
DTITLE=SOUTHERN ALL STARS - 彩 〜Aja〜
DYEAR=2004
DGENRE=Rock
TTITLE0=彩 〜Aja〜
TTITLE1=Friends
TTITLE2=夢見るアニバーサリー
EXTD=YEAR: 2004
EXTT0=
EXTT1=
EXTT2=
PLAYORDER=
